<svg width="22" height="25" viewBox="0 0 22 25" fill="none" xmlns="http://www.w3.org/2000/svg">
<path d="M19.9921 7.5699V7.6541C20.0026 7.74503 20.0026 7.83683 19.9921 7.92776M19.9921 7.5699L19.4911 18.0214C19.6447 17.9266 19.7714 17.7947 19.859 17.6381C19.9467 17.4816 19.9925 17.3056 19.9921 17.1267V7.92776M19.9921 7.5699L19.9282 7.41202L19.9921 7.5699ZM19.9921 7.92776L20.7372 8.01363L19.9921 7.92776ZM1.25786 7.9656V17.1261L20.7421 7.61626V7.61602V7.61573V7.61544V7.61515V7.61485V7.61455V7.61425V7.61395V7.61365V7.61335V7.61304V7.61274V7.61243V7.61212V7.61181V7.6115V7.61118V7.61087V7.61055V7.61023V7.60991V7.60959V7.60926V7.60894V7.60861V7.60828V7.60796V7.60762V7.60729V7.60696V7.60662V7.60628V7.60594V7.6056V7.60526V7.60492V7.60457V7.60422V7.60388V7.60353V7.60317V7.60282V7.60246V7.60211V7.60175V7.60139V7.60103V7.60066V7.6003V7.59993V7.59956V7.59919V7.59882V7.59845V7.59807V7.59769V7.59732V7.59694V7.59655V7.59617V7.59579V7.5954V7.59501V7.59462V7.59423V7.59383V7.59344V7.59304V7.59264V7.59224V7.59184V7.59143V7.59103V7.59062V7.59021V7.5898V7.58938V7.58897V7.58855V7.58813V7.58771V7.58729V7.58687V7.58644V7.58602V7.58559V7.58516V7.58472V7.58429V7.58385V7.58341V7.58297V7.58253V7.58209V7.58164V7.5812V7.58075V7.5803V7.57984V7.57939V7.57893V7.57847V7.57801V7.57755V7.57709V7.57662V7.57615V7.57568V7.57521V7.57474V7.57426V7.57379V7.57331V7.57283V7.57234V7.57186V7.57137V7.57088V7.57039V7.5699C20.7421 7.47337 20.7235 7.37775 20.6873 7.28828L20.6233 7.1304C20.6044 7.08366 20.5807 7.03894 20.5528 6.99693C20.521 6.94897 20.4864 6.90292 20.4493 6.85901C20.4085 6.80035 20.3642 6.74424 20.3166 6.69101C20.2856 6.65628 20.2513 6.62452 20.2144 6.59614L20.1184 6.52247C20.0795 6.49256 20.0377 6.46654 19.9937 6.4448L19.853 6.37536L11.8896 1.52172C11.8889 1.5213 11.8882 1.52088 11.8875 1.52046C11.5997 1.3434 11.2683 1.25 10.9307 1.25C10.5926 1.25 10.2606 1.3437 9.97255 1.52129C9.97231 1.52143 9.97208 1.52158 9.97185 1.52172L2.04166 6.3941C2.00556 6.41628 1.97141 6.44147 1.93957 6.46942L1.86208 6.53742L1.78561 6.59615C1.74865 6.62452 1.71443 6.65628 1.68337 6.691C1.63575 6.74424 1.59146 6.80035 1.55074 6.85902C1.51363 6.90293 1.47904 6.94896 1.44718 6.99691C1.41926 7.03892 1.39565 7.08365 1.3767 7.1304L1.31274 7.28828L2.00786 7.5699H1.6972H1.27718L1.26279 7.56824C1.26273 7.5688 1.26266 7.56935 1.2626 7.5699H1.25786V7.56991V7.56991V7.56991V7.56992V7.56992V7.56993V7.56993V7.56994V7.56995V7.56995V7.56996V7.56996V7.56997V7.56997V7.56998V7.56998V7.56998V7.56999V7.57V7.57V7.57001V7.57001V7.57002V7.57002V7.57003V7.57004V7.57004V7.57005V7.57006V7.57007V7.57007V7.57008V7.57009V7.5701V7.57011V7.57012V7.57013V7.57014V7.57015V7.57016V7.57017V7.57018V7.57019V7.5702V7.57021V7.57022V7.57024V7.57025V7.57026V7.57027V7.57029V7.5703V7.57031V7.57033V7.57034V7.57036V7.57037V7.57039V7.57041V7.57042V7.57044V7.57046V7.57047V7.57049V7.57051V7.57053V7.57055V7.57057V7.57059V7.57061V7.57063V7.57065V7.57067V7.57069V7.57071V7.57074V7.57076V7.57078V7.57081V7.57083V7.57086V7.57088V7.57091V7.57093V7.57096V7.57099V7.57101V7.57104V7.57107V7.5711V7.57113V7.57116V7.57119V7.57122V7.57125V7.57128V7.57131V7.57134V7.57138V7.57141V7.57145V7.57148V7.57152V7.57155V7.57159V7.57162V7.57166V7.5717V7.57174V7.57177V7.57181V7.57185V7.57189V7.57194V7.57198V7.57202V7.57206V7.5721V7.57215V7.57219V7.57224V7.57228V7.57233V7.57238V7.57242V7.57247V7.57252V7.57257V7.57262V7.57267V7.57272V7.57277V7.57282V7.57288V7.57293V7.57298V7.57304V7.57309V7.57315V7.57321V7.57326V7.57332V7.57338V7.57344V7.5735V7.57356V7.57362V7.57368V7.57375V7.57381V7.57387V7.57394V7.574V7.57407V7.57414V7.5742V7.57427V7.57434V7.57441V7.57448V7.57455V7.57463V7.5747V7.57477V7.57485V7.57492V7.575V7.57507V7.57515V7.57523V7.57531V7.57539V7.57547V7.57555V7.57563V7.57571V7.5758V7.57588V7.57596V7.57605V7.57614V7.57622V7.57631V7.5764V7.57649V7.57658V7.57667V7.57677V7.57686V7.57695V7.57705V7.57714V7.57724V7.57734V7.57744V7.57753V7.57763V7.57774V7.57784V7.57794V7.57804V7.57815V7.57825V7.57836V7.57847V7.57857V7.57868V7.57879V7.5789V7.57902V7.57913V7.57924V7.57936V7.57947V7.57959V7.5797V7.57982V7.57994V7.58006V7.58018V7.5803V7.58043V7.58055V7.58068V7.5808V7.58093V7.58106V7.58118V7.58131V7.58144V7.58158V7.58171V7.58184V7.58198V7.58211V7.58225V7.58239V7.58253V7.58267V7.58281V7.58295V7.58309V7.58324V7.58338V7.58353V7.58367V7.58382V7.58397V7.58412V7.58427V7.58442V7.58458V7.58473V7.58489V7.58504V7.5852V7.58536V7.58552V7.58568V7.58584V7.58601V7.58617V7.58634V7.5865V7.58667V7.58684V7.58701V7.58718V7.58735V7.58753V7.5877V7.58788V7.58805V7.58823V7.58841V7.58859V7.58877V7.58895V7.58914V7.58932V7.58951V7.5897V7.58989V7.59008V7.59027V7.59046V7.59065V7.59085V7.59104V7.59124V7.59144V7.59164V7.59184V7.59204V7.59224V7.59245V7.59265V7.59286V7.59307V7.59328V7.59349V7.5937V7.59391V7.59413V7.59434V7.59456V7.59478V7.595V7.59522V7.59544V7.59566V7.59589V7.59611V7.59634V7.59657V7.5968V7.59703V7.59726V7.5975V7.59773V7.59797V7.59821V7.59845V7.59869V7.59893V7.59917V7.59942V7.59966V7.59991V7.60016V7.60041V7.60066V7.60091V7.60117V7.60142V7.60168V7.60194V7.6022V7.60246V7.60272V7.60298V7.60325V7.60352V7.60378V7.60405V7.60433V7.6046V7.60487V7.60515V7.60542V7.6057V7.60598V7.60626V7.60655V7.60683V7.60712V7.6074V7.60769V7.60798V7.60827V7.60856V7.60886V7.60916V7.60945V7.60975V7.61005V7.61035V7.61066V7.61096V7.61127V7.61158V7.61189V7.6122V7.61251V7.61282V7.61314V7.61346V7.61377V7.6141V7.61442V7.61474V7.61507V7.61539V7.61572V7.61605V7.61626C1.24738 7.73247 1.24738 7.84938 1.25786 7.9656Z" fill="#EB5447" stroke="#504251" stroke-width="1.5" stroke-linejoin="round"/>
</svg>
