<svg width="24" height="24" viewBox="0 0 24 24" fill="none" xmlns="http://www.w3.org/2000/svg">
<path fill-rule="evenodd" clip-rule="evenodd" d="M15.7149 6.03699L19.5435 2.90259C17.4967 1.20327 14.8675 0.181824 12 0.181824C7.43245 0.181824 3.47012 2.77273 1.50323 6.56493H1.50387L1.50394 6.56499L1.50383 6.56497H1.50318C0.658368 8.19223 0.181763 10.0403 0.181763 12C0.181763 14.0267 0.691514 15.9338 1.5902 17.6007C3.58634 21.3026 7.49931 23.8182 12 23.8182C14.8006 23.8182 17.3734 22.8442 19.3986 21.2163L19.398 21.2156L19.3979 21.2155L19.398 21.2156L19.3987 21.2162C21.4811 19.5422 22.9844 17.1766 23.5597 14.4675C23.7292 13.6714 23.8181 12.8461 23.8181 12C23.8181 11.2454 23.7474 10.5071 23.6116 9.79218H18.6715H12.2598V14.4675H18.5793C18.0104 15.9857 16.9305 17.2539 15.5487 18.0643L15.5488 18.0644L15.5486 18.0643C14.5078 18.6754 13.2947 19.0254 12 19.0254C8.98761 19.0254 6.41813 17.1293 5.42009 14.4656L5.42007 14.4657L5.42008 14.4656C5.13178 13.6988 4.97464 12.8676 4.97454 12C4.97454 11.2007 5.10833 10.4325 5.35379 9.71692L5.35371 9.71674L5.35388 9.71688C6.30192 6.95775 8.91946 4.97465 12 4.97465C13.3643 4.97465 14.6377 5.36364 15.7149 6.03699Z" fill="#3F3F3F"/>
</svg>
