<svg width="23" height="23" viewBox="0 0 23 23" fill="none" xmlns="http://www.w3.org/2000/svg">
<g clip-path="url(#clip0_451_106)">
<path d="M23 21.645L16.9989 15.6439C18.5578 13.7374 19.3242 11.3046 19.1397 8.84887C18.9552 6.39311 17.8338 4.10221 16.0076 2.45003C14.1814 0.797858 11.79 -0.0891931 9.32807 -0.0276376C6.86616 0.0339179 4.52209 1.03937 2.78071 2.78075C1.03933 4.52213 0.0338826 6.8662 -0.0276729 9.32811C-0.0892284 11.79 0.797822 14.1814 2.45 16.0076C4.10218 17.8339 6.39307 18.9552 8.84883 19.1397C11.3046 19.3242 13.7373 18.5578 15.6438 16.999L21.6449 23L23 21.645ZM9.58333 17.25C8.06701 17.25 6.58474 16.8004 5.32396 15.958C4.06318 15.1155 3.08053 13.9182 2.50026 12.5173C1.91998 11.1164 1.76816 9.57486 2.06398 8.08768C2.3598 6.60049 3.08998 5.23442 4.16218 4.16222C5.23438 3.09001 6.60045 2.35983 8.08764 2.06401C9.57483 1.76819 11.1163 1.92002 12.5172 2.50029C13.9181 3.08056 15.1155 4.06322 15.9579 5.324C16.8004 6.58477 17.25 8.06705 17.25 9.58337C17.2477 11.616 16.4392 13.5647 15.002 15.002C13.5647 16.4393 11.616 17.2478 9.58333 17.25Z" fill="#4F5358"/>
</g>
<defs>
<clipPath id="clip0_451_106">
<rect width="23" height="23" fill="white"/>
</clipPath>
</defs>
</svg>
