<svg width="30" height="30" viewBox="0 0 30 30" fill="none" xmlns="http://www.w3.org/2000/svg">
<circle cx="15" cy="15" r="15" fill="url(#paint0_linear_461_420)"/>
<path d="M22.993 10.8464C22.993 10.8464 22.993 10.8464 22.993 10.7742L22.9362 10.6389C22.9164 10.6102 22.8942 10.583 22.8698 10.5577C22.8445 10.5195 22.816 10.4833 22.7845 10.4494L22.6993 10.3863L22.5476 10.3141L15.4406 6.13713C15.29 6.04752 15.116 6 14.9384 6C14.7608 6 14.5868 6.04752 14.4362 6.13713L7.38603 10.3141L7.30074 10.3863L7.21546 10.4494C7.18405 10.4833 7.15553 10.5195 7.13017 10.5577C7.10581 10.583 7.08363 10.6102 7.06384 10.6389L7.00699 10.7742C7.00699 10.7742 7.00699 10.7742 7.00699 10.8464C6.99767 10.9243 6.99767 11.003 7.00699 11.0809V18.9658C7.00666 19.1191 7.04739 19.2699 7.12531 19.4041C7.20324 19.5383 7.3158 19.6513 7.45236 19.7326L14.5594 23.9096C14.6031 23.9353 14.6512 23.9536 14.7015 23.9637C14.7015 23.9637 14.7489 23.9637 14.7773 23.9637C14.9376 24.0121 15.1098 24.0121 15.2701 23.9637C15.2701 23.9637 15.3174 23.9637 15.3459 23.9637C15.3962 23.9536 15.4443 23.9353 15.488 23.9096L22.5476 19.7326C22.6842 19.6513 22.7968 19.5383 22.8747 19.4041C22.9526 19.2699 22.9933 19.1191 22.993 18.9658V11.0809C23.0023 11.003 23.0023 10.9243 22.993 10.8464ZM14.0192 21.5279L8.80743 18.4606V12.7048L14.0192 15.7631V21.5279ZM14.9668 14.2024L9.66027 11.0809L14.9668 7.9685L20.2734 11.0809L14.9668 14.2024ZM21.1262 18.4606L15.9144 21.5279V15.7631L21.1262 12.7048V18.4606Z" fill="white"/>
<defs>
<linearGradient id="paint0_linear_461_420" x1="15" y1="0" x2="15" y2="30" gradientUnits="userSpaceOnUse">
<stop stop-color="#655F5F"/>
<stop offset="1"/>
</linearGradient>
</defs>
</svg>
