<svg width="22" height="22" viewBox="0 0 22 22" fill="none" xmlns="http://www.w3.org/2000/svg">
<path d="M21.0638 0.952431C20.6436 0.524181 20.1106 0.223595 19.5266 0.0854301C18.9426 -0.0527349 18.3314 -0.0228351 17.7637 0.171672L2.19776 5.37307C1.56997 5.57849 1.02145 5.97365 0.627922 6.504C0.23439 7.03435 0.0152556 7.67375 0.000767734 8.33391C-0.0137202 8.99408 0.177153 9.64246 0.547039 10.1896C0.916925 10.7367 1.44758 11.1555 2.06576 11.3882L7.83009 13.5875C7.96135 13.6377 8.08086 13.7144 8.18117 13.8128C8.28148 13.9111 8.36044 14.0291 8.41312 14.1594L10.6132 19.9326C10.8372 20.5418 11.2436 21.0672 11.7771 21.4371C12.3106 21.8071 12.9452 22.0036 13.5944 21.9999H13.6714C14.3326 21.9879 14.9734 21.7694 15.5041 21.375C16.0347 20.9806 16.4286 20.4301 16.6306 19.8006L21.8339 4.21843C22.0231 3.65643 22.0513 3.05272 21.9152 2.47556C21.7791 1.89839 21.4842 1.3708 21.0638 0.952431ZM19.7988 3.52564L14.5405 19.1188C14.4794 19.3162 14.3568 19.4888 14.1905 19.6115C14.0242 19.7342 13.8231 19.8005 13.6164 19.8006C13.411 19.804 13.2094 19.7448 13.0384 19.6308C12.8675 19.5169 12.7353 19.3537 12.6594 19.1628L10.4592 13.3896C10.2997 12.9701 10.0537 12.5888 9.73725 12.2706C9.42075 11.9523 9.04082 11.7041 8.62213 11.5422L2.8468 9.34285C2.65197 9.27148 2.4845 9.14073 2.36804 8.96906C2.25157 8.79739 2.19201 8.59348 2.19776 8.38614C2.19793 8.17956 2.26423 7.97846 2.38695 7.81226C2.50967 7.64605 2.68238 7.52346 2.8798 7.46243L18.4787 2.26103C18.6578 2.18806 18.8542 2.16852 19.0442 2.20475C19.2341 2.24099 19.4095 2.33146 19.5492 2.46522C19.6888 2.59898 19.7867 2.77031 19.831 2.9585C19.8753 3.14669 19.8641 3.34367 19.7988 3.52564Z" fill="black"/>
</svg>
