<svg width="22" height="23" viewBox="0 0 22 23" fill="none" xmlns="http://www.w3.org/2000/svg">
<path d="M21.1942 8.67584L14.2413 1.40156C13.3808 0.504016 12.2152 0 11 0C9.78481 0 8.6192 0.504016 7.75867 1.40156L0.80576 8.67584C0.549484 8.94221 0.3463 9.25914 0.207986 9.60827C0.0696732 9.95739 -0.00101787 10.3318 1.10728e-05 10.7097V20.1233C1.10728e-05 20.8862 0.289742 21.6179 0.805467 22.1574C1.32119 22.6969 2.02066 23 2.75001 23H19.25C19.9793 23 20.6788 22.6969 21.1945 22.1574C21.7103 21.6179 22 20.8862 22 20.1233V10.7097C22.001 10.3318 21.9303 9.95739 21.792 9.60827C21.6537 9.25914 21.4505 8.94221 21.1942 8.67584ZM13.75 21.0822H8.25V17.3098C8.25 16.5469 8.53973 15.8152 9.05546 15.2757C9.57118 14.7362 10.2707 14.4331 11 14.4331C11.7293 14.4331 12.4288 14.7362 12.9445 15.2757C13.4603 15.8152 13.75 16.5469 13.75 17.3098V21.0822ZM20.1667 20.1233C20.1667 20.3776 20.0701 20.6215 19.8982 20.8013C19.7263 20.9812 19.4931 21.0822 19.25 21.0822H15.5833V17.3098C15.5833 16.0383 15.1004 14.8187 14.2409 13.9196C13.3814 13.0204 12.2156 12.5153 11 12.5153C9.78443 12.5153 8.61864 13.0204 7.7591 13.9196C6.89956 14.8187 6.41667 16.0383 6.41667 17.3098V21.0822H2.75001C2.50689 21.0822 2.27374 20.9812 2.10183 20.8013C1.92992 20.6215 1.83334 20.3776 1.83334 20.1233V10.7097C1.83419 10.4556 1.93068 10.212 2.10193 10.0317L9.05484 2.76034C9.57156 2.22232 10.2709 1.92028 11 1.92028C11.7291 1.92028 12.4284 2.22232 12.9452 2.76034L19.8981 10.0346C20.0687 10.2142 20.1651 10.4565 20.1667 10.7097V20.1233Z" fill="#606060"/>
</svg>
