<svg width="22" height="22" viewBox="0 0 22 22" fill="none" xmlns="http://www.w3.org/2000/svg">
<path d="M10.9845 0C12.427 0 13.8554 0.284511 15.1881 0.837288C16.5208 1.39007 17.7317 2.20028 18.7517 3.22168C20.8117 5.28449 21.969 8.08226 21.969 10.9995C21.9786 13.5394 21.1004 16.0027 19.4865 17.9622L21.6834 20.1621C21.8359 20.3168 21.9391 20.5132 21.9802 20.7266C22.0212 20.94 21.9982 21.1607 21.9141 21.3611C21.8229 21.559 21.675 21.7253 21.4892 21.8389C21.3034 21.9524 21.0881 22.0082 20.8706 21.999H10.9845C8.07124 21.999 5.27729 20.8402 3.21729 18.7773C1.1573 16.7145 1.10344e-06 13.9168 1.10344e-06 10.9995C1.10344e-06 8.08226 1.1573 5.28449 3.21729 3.22168C5.27729 1.15887 8.07124 0 10.9845 0V0ZM10.9845 19.7991H18.2233L17.2018 18.7762C16.9972 18.5701 16.8823 18.2913 16.8823 18.0007C16.8823 17.7101 16.9972 17.4313 17.2018 17.2252C18.6401 15.7865 19.5358 13.893 19.7362 11.8671C19.9367 9.84132 19.4295 7.80856 18.3011 6.1152C17.1726 4.42185 15.4928 3.17265 13.5477 2.58046C11.6027 1.98826 9.51275 2.08969 7.634 2.86748C5.75526 3.64526 4.20394 5.05128 3.24435 6.84598C2.28475 8.64068 1.97626 10.713 2.37142 12.7099C2.76658 14.7069 3.84095 16.5048 5.41148 17.7975C6.98202 19.0901 8.95155 19.7975 10.9845 19.7991V19.7991Z" fill="black"/>
</svg>
