<svg width="8" height="10" viewBox="0 0 8 10" fill="none" xmlns="http://www.w3.org/2000/svg">
<path d="M4 0C2.93913 0 1.92172 0.421426 1.17157 1.17157C0.421427 1.92171 0 2.93912 0 3.99999C0 6.69998 3.525 9.74997 3.675 9.87997C3.76557 9.95743 3.88082 10 4 10C4.11918 10 4.23443 9.95743 4.325 9.87997C4.5 9.74997 8 6.69998 8 3.99999C8 2.93912 7.57857 1.92171 6.82843 1.17157C6.07828 0.421426 5.06087 0 4 0ZM4 8.82497C2.935 7.82497 1 5.66998 1 3.99999C1 3.20434 1.31607 2.44128 1.87868 1.87867C2.44129 1.31607 3.20435 0.999997 4 0.999997C4.79565 0.999997 5.55871 1.31607 6.12132 1.87867C6.68393 2.44128 7 3.20434 7 3.99999C7 5.66998 5.065 7.82997 4 8.82497ZM4 1.99999C3.60444 1.99999 3.21776 2.11729 2.88886 2.33705C2.55996 2.55682 2.30362 2.86917 2.15224 3.23462C2.00087 3.60007 1.96126 4.00221 2.03843 4.39017C2.1156 4.77813 2.30608 5.13449 2.58579 5.4142C2.86549 5.6939 3.22186 5.88438 3.60982 5.96155C3.99778 6.03872 4.39991 5.99912 4.76537 5.84774C5.13082 5.69637 5.44318 5.44002 5.66294 5.11112C5.8827 4.78223 6 4.39555 6 3.99999C6 3.46956 5.78929 2.96085 5.41421 2.58578C5.03914 2.21071 4.53043 1.99999 4 1.99999ZM4 4.99998C3.80222 4.99998 3.60888 4.94133 3.44443 4.83145C3.27998 4.72157 3.15181 4.56539 3.07612 4.38267C3.00043 4.19994 2.98063 3.99888 3.01921 3.8049C3.0578 3.61092 3.15304 3.43273 3.29289 3.29288C3.43275 3.15303 3.61093 3.05779 3.80491 3.0192C3.99889 2.98062 4.19996 3.00042 4.38268 3.07611C4.56541 3.1518 4.72159 3.27997 4.83147 3.44442C4.94135 3.60887 5 3.80221 5 3.99999C5 4.2652 4.89464 4.51956 4.70711 4.70709C4.51957 4.89463 4.26522 4.99998 4 4.99998Z" fill="#757575"/>
</svg>
