<svg width="23" height="23" viewBox="0 0 23 23" fill="none" xmlns="http://www.w3.org/2000/svg">
<g clip-path="url(#clip0_453_161)">
<path d="M18.2083 0H4.79167C3.5213 0.0015217 2.30341 0.506845 1.40513 1.40513C0.506845 2.30341 0.0015217 3.5213 0 4.79167L0 18.2083C0.0015217 19.4787 0.506845 20.6966 1.40513 21.5949C2.30341 22.4932 3.5213 22.9985 4.79167 23H18.2083C19.4787 22.9985 20.6966 22.4932 21.5949 21.5949C22.4932 20.6966 22.9985 19.4787 23 18.2083V4.79167C22.9985 3.5213 22.4932 2.30341 21.5949 1.40513C20.6966 0.506845 19.4787 0.0015217 18.2083 0V0ZM21.0833 18.2083C21.0833 18.9708 20.7804 19.7021 20.2413 20.2413C19.7021 20.7804 18.9708 21.0833 18.2083 21.0833H4.79167C4.02917 21.0833 3.2979 20.7804 2.75873 20.2413C2.21957 19.7021 1.91667 18.9708 1.91667 18.2083V4.79167C1.91667 4.02917 2.21957 3.2979 2.75873 2.75873C3.2979 2.21957 4.02917 1.91667 4.79167 1.91667H18.2083C18.9708 1.91667 19.7021 2.21957 20.2413 2.75873C20.7804 3.2979 21.0833 4.02917 21.0833 4.79167V18.2083Z" fill="#4F5358"/>
<path d="M8.94411 15.2557L5.1884 11.5C5.00869 11.3204 4.76498 11.2194 4.51086 11.2194C4.25675 11.2194 4.01304 11.3204 3.83332 11.5C3.65366 11.6797 3.55273 11.9234 3.55273 12.1776C3.55273 12.4317 3.65366 12.6754 3.83332 12.8551L7.58903 16.6108C7.76702 16.7889 7.97835 16.9301 8.21094 17.0265C8.44353 17.1229 8.69283 17.1725 8.94459 17.1725C9.19636 17.1725 9.44566 17.1229 9.67825 17.0265C9.91084 16.9301 10.1222 16.7889 10.3002 16.6108L19.1667 7.74431C19.3463 7.5646 19.4472 7.32089 19.4472 7.06677C19.4472 6.81266 19.3463 6.56894 19.1667 6.38923C18.9869 6.20957 18.7432 6.10864 18.4891 6.10864C18.235 6.10864 17.9913 6.20957 17.8116 6.38923L8.94411 15.2557Z" fill="#4F5358"/>
</g>
<defs>
<clipPath id="clip0_453_161">
<rect width="23" height="23" fill="white"/>
</clipPath>
</defs>
</svg>
