<svg width="19" height="20" viewBox="0 0 19 20" fill="none" xmlns="http://www.w3.org/2000/svg">
<path d="M17.6429 0H1.35714C0.997206 0 0.652012 0.105355 0.397498 0.292889C0.142985 0.480423 2.93864e-09 0.734773 2.93864e-09 0.999986V18.9997C-1.70665e-05 19.1909 0.0743289 19.3781 0.214231 19.539C0.354132 19.7 0.553727 19.8281 0.789369 19.9081C1.02501 19.988 1.28683 20.0166 1.5438 19.9903C1.80077 19.964 2.04213 19.884 2.23929 19.7597L9.5 15.2698L16.6793 19.7097C16.8061 19.8024 16.9565 19.8757 17.1218 19.9255C17.2872 19.9753 17.4642 20.0005 17.6429 19.9997C17.8209 20.0031 17.9975 19.9757 18.1586 19.9197C18.4064 19.8447 18.6186 19.7173 18.7683 19.5536C18.918 19.3899 18.9987 19.1972 19 18.9997V0.999986C19 0.734773 18.857 0.480423 18.6025 0.292889C18.348 0.105355 18.0028 0 17.6429 0ZM16.2857 16.8598L10.3686 13.1998C10.1247 13.0502 9.81737 12.9682 9.5 12.9682C9.18263 12.9682 8.87529 13.0502 8.63143 13.1998L2.71429 16.8598V1.99997H16.2857V16.8598Z" fill="black"/>
</svg>
