<svg width="30" height="30" viewBox="0 0 30 30" fill="none" xmlns="http://www.w3.org/2000/svg">
<circle cx="15" cy="15" r="15" fill="url(#paint0_linear_461_432)"/>
<path d="M11.4006 10.2004C11.1632 10.2004 10.9312 10.2708 10.7338 10.4027C10.5365 10.5346 10.3826 10.722 10.2918 10.9413C10.201 11.1606 10.1772 11.4019 10.2235 11.6347C10.2698 11.8675 10.3841 12.0814 10.552 12.2492C10.7198 12.4171 10.9336 12.5314 11.1665 12.5777C11.3993 12.624 11.6406 12.6002 11.8599 12.5094C12.0792 12.4186 12.2666 12.2647 12.3985 12.0674C12.5304 11.87 12.6007 11.638 12.6007 11.4006C12.6007 11.0823 12.4743 10.777 12.2492 10.552C12.0242 10.3269 11.7189 10.2004 11.4006 10.2004ZM22.298 13.9689L15.5691 7.23204C15.4944 7.15789 15.4057 7.09922 15.3082 7.0594C15.2107 7.01959 15.1064 6.9994 15.0011 7.00001H7.80012C7.58792 7.00001 7.38441 7.08431 7.23436 7.23436C7.08431 7.38441 7.00001 7.58792 7.00001 7.80012V15.0011C6.9994 15.1064 7.01959 15.2107 7.0594 15.3082C7.09922 15.4057 7.15789 15.4944 7.23204 15.5691L13.9689 22.298C14.419 22.7475 15.0291 23 15.6651 23C16.3012 23 16.9113 22.7475 17.3614 22.298L22.298 17.4014C22.7475 16.9513 23 16.3412 23 15.7052C23 15.0691 22.7475 14.459 22.298 14.0089V13.9689ZM21.1699 16.2252L16.2252 21.1619C16.0753 21.3109 15.8725 21.3945 15.6611 21.3945C15.4498 21.3945 15.247 21.3109 15.0971 21.1619L8.60022 14.673V8.60022H14.673L21.1699 15.0971C21.244 15.1718 21.3027 15.2605 21.3425 15.358C21.3823 15.4555 21.4025 15.5599 21.4019 15.6651C21.401 15.875 21.3177 16.0762 21.1699 16.2252Z" fill="white"/>
<defs>
<linearGradient id="paint0_linear_461_432" x1="15" y1="0" x2="15" y2="30" gradientUnits="userSpaceOnUse">
<stop stop-color="#655F5F"/>
<stop offset="1"/>
</linearGradient>
</defs>
</svg>
