<svg width="21" height="23" viewBox="0 0 21 23" fill="none" xmlns="http://www.w3.org/2000/svg">
<path d="M20.6681 13.0891L18.8474 6.53867C18.3138 4.61966 17.154 2.9341 15.5524 1.74991C13.9509 0.565726 11.9994 -0.0491341 10.0083 0.00306998C8.01713 0.0552741 6.10058 0.771546 4.56326 2.03803C3.02594 3.30452 1.95607 5.04853 1.52371 6.99286L0.114165 13.3315C-0.0415319 14.0319 -0.0379322 14.7583 0.124698 15.4572C0.287329 16.156 0.604837 16.8094 1.05378 17.369C1.50273 17.9287 2.07164 18.3804 2.71853 18.6908C3.36542 19.0012 4.07376 19.1623 4.79125 19.1623H5.85872C6.07864 20.2454 6.66624 21.2191 7.52194 21.9185C8.37765 22.6179 9.44884 23 10.554 23C11.6592 23 12.7304 22.6179 13.5861 21.9185C14.4418 21.2191 15.0294 20.2454 15.2493 19.1623H16.0523C16.7909 19.1624 17.5195 18.9916 18.1812 18.6635C18.8429 18.3353 19.4198 17.8586 19.8668 17.2706C20.3138 16.6826 20.6188 15.9992 20.7579 15.2739C20.8971 14.5485 20.8667 13.8008 20.669 13.0891H20.6681ZM10.554 21.0787C9.96158 21.0763 9.38437 20.8909 8.90136 20.5478C8.41835 20.2048 8.05313 19.7209 7.85565 19.1623H13.2524C13.0549 19.7209 12.6897 20.2048 12.2067 20.5478C11.7236 20.8909 11.1464 21.0763 10.554 21.0787ZM18.3405 16.1104C18.0735 16.4646 17.7276 16.7517 17.3302 16.9488C16.9328 17.1459 16.4949 17.2476 16.0513 17.2459H4.79125C4.36081 17.2458 3.93587 17.149 3.54781 16.9628C3.15975 16.7765 2.81847 16.5055 2.54917 16.1697C2.27986 15.8339 2.08941 15.4419 1.99186 15.0226C1.89432 14.6034 1.89217 14.1676 1.98558 13.7474L3.39416 7.40777C3.73371 5.88056 4.57403 4.51068 5.78154 3.5159C6.98904 2.52112 8.49443 1.95852 10.0584 1.91755C11.6224 1.87658 13.1551 2.35958 14.4131 3.28978C15.671 4.21998 16.5819 5.54398 17.0009 7.05131L18.8216 13.6017C18.9419 14.0285 18.961 14.4774 18.8775 14.9129C18.794 15.3484 18.6102 15.7584 18.3405 16.1104Z" fill="#4F5358"/>
</svg>
