<svg width="22" height="23" viewBox="0 0 22 23" fill="none" xmlns="http://www.w3.org/2000/svg">
<path d="M15.5833 17.2464V23H19.25C20.7688 23 22 21.712 22 20.1232V11.3768C22.0002 10.8786 21.8151 10.3999 21.4839 10.042L13.6941 1.23226C12.3196 -0.32345 9.99982 -0.418969 8.51267 1.01889C8.44203 1.08721 8.37396 1.15837 8.30869 1.23226L0.532598 10.0391C0.19134 10.3985 -0.000128841 10.8846 6.50474e-08 11.3912V20.1232C6.50474e-08 21.712 1.23123 23 2.75 23H6.41665V17.2464C6.4338 14.6316 8.45191 12.4963 10.8885 12.4348C13.4067 12.3712 15.5641 14.5429 15.5833 17.2464Z" fill="black"/>
</svg>
