<svg width="23" height="23" viewBox="0 0 23 23" fill="none" xmlns="http://www.w3.org/2000/svg">
<g clip-path="url(#clip0_461_137)">
<path d="M22.9999 21.6449L16.9988 15.6438C18.5577 13.7373 19.3241 11.3046 19.1396 8.8488C18.9551 6.39305 17.8337 4.10215 16.0075 2.44997C14.1813 0.797797 11.7899 -0.0892541 9.32799 -0.0276986C6.86608 0.0338569 4.522 1.03931 2.78063 2.78069C1.03925 4.52206 0.0337958 6.86614 -0.0277597 9.32805C-0.0893151 11.79 0.797736 14.1813 2.44991 16.0076C4.10209 17.8338 6.39298 18.9551 8.84874 19.1397C11.3045 19.3242 13.7372 18.5577 15.6437 16.9989L21.6448 23L22.9999 21.6449ZM9.58325 17.25C8.06692 17.25 6.58465 16.8003 5.32387 15.9579C4.0631 15.1155 3.08044 13.9181 2.50017 12.5172C1.9199 11.1163 1.76807 9.5748 2.06389 8.08762C2.35971 6.60043 3.08989 5.23436 4.16209 4.16216C5.2343 3.08995 6.60037 2.35977 8.08755 2.06395C9.57474 1.76813 11.1163 1.91996 12.5172 2.50023C13.9181 3.0805 15.1154 4.06316 15.9578 5.32394C16.8003 6.58471 17.2499 8.06698 17.2499 9.58331C17.2476 11.6159 16.4392 13.5647 15.0019 15.0019C13.5646 16.4392 11.6159 17.2477 9.58325 17.25Z" fill="#4F5358"/>
</g>
<defs>
<clipPath id="clip0_461_137">
<rect width="23" height="23" fill="white"/>
</clipPath>
</defs>
</svg>
