<svg width="21" height="23" viewBox="0 0 21 23" fill="none" xmlns="http://www.w3.org/2000/svg">
<path d="M2.84627 17.2464H17.7039C18.1612 17.2464 18.6117 17.1352 19.0174 16.9222C19.4231 16.7093 19.7721 16.4008 20.0347 16.0228C20.2973 15.6449 20.4659 15.2087 20.5262 14.751C20.5865 14.2934 20.5367 13.8278 20.3811 13.3937L17.6745 5.83886C17.2123 4.15993 16.2181 2.68008 14.8439 1.62564C13.4698 0.571191 11.7914 0.000203199 10.0654 9.74719e-10V9.7472e-10C8.26864 -2.83534e-05 6.52562 0.618559 5.12409 1.75363C3.72256 2.8887 2.74633 4.47238 2.35658 6.2432L0.126408 13.525C-0.00489711 13.9549 -0.0344157 14.41 0.0402271 14.8535C0.11487 15.297 0.29159 15.7167 0.556168 16.0787C0.820746 16.4407 1.16579 16.7349 1.56355 16.9377C1.9613 17.1406 2.40066 17.2463 2.84627 17.2464Z" fill="black"/>
<path d="M5.72363 19.1627C5.94144 20.2456 6.52339 21.2193 7.37087 21.9186C8.21834 22.618 9.27923 23 10.3738 23C11.4683 23 12.5292 22.618 13.3767 21.9186C14.2242 21.2193 14.8061 20.2456 15.0239 19.1627H5.72363Z" fill="black"/>
</svg>
