<svg width="24" height="24" viewBox="0 0 24 24" fill="none" xmlns="http://www.w3.org/2000/svg">
<path d="M18.1864 16.1509C19.7164 14.1062 20.4151 11.5579 20.1417 9.01878C19.8684 6.4797 18.6433 4.13843 16.7131 2.46626C14.783 0.794092 12.291 -0.0848155 9.7389 0.00645882C7.18677 0.0977331 4.76397 1.15241 2.95819 2.95819C1.15241 4.76397 0.0977331 7.18677 0.00645882 9.7389C-0.0848155 12.291 0.794092 14.783 2.46626 16.7131C4.13843 18.6433 6.4797 19.8684 9.01878 20.1417C11.5579 20.4151 14.1062 19.7164 16.1509 18.1864L21.0384 23.0739L23.0739 21.0423L18.1864 16.1509ZM10.1364 17.3239C8.71488 17.3239 7.32525 16.9024 6.14327 16.1126C4.96129 15.3228 4.04005 14.2003 3.49605 12.887C2.95204 11.5736 2.8097 10.1285 3.08704 8.73422C3.36437 7.33998 4.04891 6.05929 5.0541 5.0541C6.05929 4.04891 7.33998 3.36437 8.73422 3.08704C10.1285 2.8097 11.5736 2.95204 12.887 3.49605C14.2003 4.04005 15.3228 4.96129 16.1126 6.14327C16.9024 7.32525 17.3239 8.71488 17.3239 10.1364C17.3222 12.0421 16.5643 13.8693 15.2168 15.2168C13.8693 16.5643 12.0421 17.3222 10.1364 17.3239Z" fill="black"/>
</svg>
