<svg width="24" height="22" viewBox="0 0 24 22" fill="none" xmlns="http://www.w3.org/2000/svg">
<path d="M21.5572 3.33879L21.56 3.33973C21.9076 3.45713 22.2095 3.68081 22.423 3.97914C22.6364 4.27724 22.7508 4.63483 22.75 5.00143V5.0003H22L22.75 5.00224L21.5572 3.33879ZM21.5572 3.33879L15.5572 1.33879L15.4417 1.3003M21.5572 3.33879L15.4417 1.3003M15.4417 1.3003H15.32M15.4417 1.3003H15.32M15.32 1.3003H15.2808C15.2137 1.29562 15.1463 1.29562 15.0792 1.3003H14.88H14.75H14.68H14.5548M15.32 1.3003H14.5548M14.5548 1.3003L14.4365 1.34094M14.5548 1.3003L14.4365 1.34094M14.4365 1.34094L9 3.20733L3.56353 1.34094L3.56355 1.34089M14.4365 1.34094L3.56355 1.34089M3.56355 1.34089L3.55487 1.33802M3.56355 1.34089L3.55487 1.33802M3.55487 1.33802C3.2917 1.25124 3.01168 1.2282 2.73786 1.2708C2.46508 1.31323 2.20623 1.41959 1.98244 1.58117C1.75744 1.74197 1.57374 1.95383 1.44642 2.19937C1.31862 2.44584 1.2513 2.71919 1.25001 2.99683L1.25 2.99683M3.55487 1.33802L1.25 2.99683M1.25 2.99683V3.0003M1.25 2.99683V3.0003M1.25 3.0003V16.9995M1.25 3.0003L2.44283 18.6618M2.44283 18.6618L2.44 18.6609C2.09242 18.5435 1.79052 18.3198 1.57698 18.0215C1.36365 17.7234 1.24929 17.366 1.25 16.9995M2.44283 18.6618L8.44283 20.6618L8.44283 20.6618M2.44283 18.6618L8.44283 20.6618M1.25 16.9995C1.25 16.9991 1.25 16.9987 1.25001 16.9984L2 17.0003H1.25V16.9995ZM8.44283 20.6618L8.4475 20.6634M8.44283 20.6618L8.4475 20.6634M8.4475 20.6634C8.80004 20.7783 9.17997 20.7783 9.53251 20.6634L9.53251 20.6634M8.4475 20.6634L9.53251 20.6634M9.53251 20.6634L9.53717 20.6618M9.53251 20.6634L9.53717 20.6618M9.53717 20.6618L14.9965 18.842L20.4365 20.7097L20.5062 20.7336M9.53717 20.6618L20.5062 20.7336M20.5062 20.7336L20.5792 20.7435M20.5062 20.7336L20.5792 20.7435M20.5792 20.7435C20.7342 20.7645 20.8912 20.7667 21.0467 20.7501L20.5792 20.7435ZM22.0236 20.4151C22.0265 20.413 22.0293 20.4108 22.0322 20.4086L21.58 19.8103L22.015 20.4213C22.0179 20.4192 22.0207 20.4172 22.0236 20.4151ZM7.25 6.2613V16.5706L4.75 15.7393V5.43005L7.25 6.2613ZM13.25 5.43005V15.7393L10.75 16.5706V6.2613L13.25 5.43005ZM19.25 6.2613V16.5706L16.75 15.7393V5.43005L19.25 6.2613Z" fill="#EB5447" stroke="#504251" stroke-width="1.5"/>
</svg>
